<?xml version="1.0" encoding="utf-8"?>
<!-- Generator: Adobe Illustrator 15.0.0, SVG Export Plug-In . SVG Version: 6.00 Build 0)  -->
<!DOCTYPE svg PUBLIC "-//W3C//DTD SVG 1.1//EN" "http://www.w3.org/Graphics/SVG/1.1/DTD/svg11.dtd">
<svg version="1.1" id="Calque_1" xmlns="http://www.w3.org/2000/svg" xmlns:xlink="http://www.w3.org/1999/xlink" x="0px" y="0px"
	 width="1162px" height="926.566px" viewBox="0 0 1162 926.566" enable-background="new 0 0 1162 926.566" xml:space="preserve">
<g>
	<path fill="#FFFFFF" stroke="#000000" stroke-width="0.5" stroke-miterlimit="10" d="M999.062,631.55
		c0,3.306-2.679,5.982-5.981,5.982l0,0c-3.305,0-5.982-2.681-5.982-5.982V146.934c0-3.304,2.68-5.983,5.982-5.983l0,0
		c3.305,0,5.981,2.679,5.981,5.983V631.55z"/>
	<path fill="#FFFFFF" stroke="#000000" stroke-width="0.5" stroke-miterlimit="10" d="M160.555,631.55
		c0,3.306-2.679,5.982-5.983,5.982l0,0c-3.304,0-5.981-2.681-5.981-5.982V146.934c0-3.304,2.679-5.983,5.981-5.983l0,0
		c3.306,0,5.983,2.679,5.983,5.983V631.55z"/>
	<path fill="#FFFFFF" stroke="#000000" stroke-width="0.5" stroke-miterlimit="10" d="M197.012,631.55
		c0,3.306-2.679,5.982-5.983,5.982l0,0c-3.304,0-5.981-2.681-5.981-5.982V146.934c0-3.304,2.679-5.983,5.981-5.983l0,0
		c3.306,0,5.983,2.679,5.983,5.983V631.55z"/>
	<path fill="#FFFFFF" stroke="#000000" stroke-width="0.5" stroke-miterlimit="10" d="M962.604,631.55
		c0,3.306-2.68,5.982-5.982,5.982l0,0c-3.305,0-5.982-2.681-5.982-5.982V146.934c0-3.304,2.68-5.983,5.982-5.983l0,0
		c3.305,0,5.982,2.679,5.982,5.983V631.55z"/>
	<path fill="#FFFFFF" stroke="#000000" stroke-width="0.5" stroke-miterlimit="10" d="M926.147,631.55
		c0,3.306-2.68,5.982-5.982,5.982l0,0c-3.305,0-5.982-2.681-5.982-5.982V146.934c0-3.304,2.68-5.983,5.982-5.983l0,0
		c3.305,0,5.982,2.679,5.982,5.983V631.55z"/>
	<path fill="#FFFFFF" stroke="#000000" stroke-width="0.5" stroke-miterlimit="10" d="M889.69,631.55
		c0,3.306-2.68,5.982-5.982,5.982l0,0c-3.305,0-5.982-2.681-5.982-5.982V146.934c0-3.304,2.68-5.983,5.982-5.983l0,0
		c3.305,0,5.982,2.679,5.982,5.983V631.55z"/>
	<path fill="#FFFFFF" stroke="#000000" stroke-width="0.5" stroke-miterlimit="10" d="M853.234,631.55
		c0,3.306-2.681,5.982-5.983,5.982l0,0c-3.304,0-5.982-2.681-5.982-5.982V146.934c0-3.304,2.681-5.983,5.982-5.983l0,0
		c3.305,0,5.983,2.679,5.983,5.983V631.55z"/>
	<path fill="#FFFFFF" stroke="#000000" stroke-width="0.5" stroke-miterlimit="10" d="M816.777,631.55
		c0,3.306-2.681,5.982-5.983,5.982l0,0c-3.304,0-5.982-2.681-5.982-5.982V146.934c0-3.304,2.681-5.983,5.982-5.983l0,0
		c3.305,0,5.983,2.679,5.983,5.983V631.55z"/>
	<path fill="#FFFFFF" stroke="#000000" stroke-width="0.5" stroke-miterlimit="10" d="M634.492,631.55
		c0,3.306-2.68,5.982-5.982,5.982l0,0c-3.305,0-5.981-2.681-5.981-5.982V146.934c0-3.304,2.679-5.983,5.981-5.983l0,0
		c3.306,0,5.982,2.679,5.982,5.983V631.55z"/>
	<path fill="#FFFFFF" stroke="#000000" stroke-width="0.5" stroke-miterlimit="10" d="M452.209,631.55
		c0,3.306-2.679,5.982-5.981,5.982l0,0c-3.306,0-5.982-2.681-5.982-5.982V146.934c0-3.304,2.679-5.983,5.982-5.983l0,0
		c3.305,0,5.981,2.679,5.981,5.983V631.55z"/>
	<path fill="#FFFFFF" stroke="#000000" stroke-width="0.5" stroke-miterlimit="10" d="M415.752,631.55
		c0,3.306-2.679,5.982-5.981,5.982l0,0c-3.306,0-5.981-2.681-5.981-5.982V146.934c0-3.304,2.678-5.983,5.981-5.983l0,0
		c3.305,0,5.981,2.679,5.981,5.983V631.55z"/>
	<path fill="#FFFFFF" stroke="#000000" stroke-width="0.5" stroke-miterlimit="10" d="M379.296,631.55
		c0,3.306-2.679,5.982-5.982,5.982l0,0c-3.305,0-5.981-2.681-5.981-5.982V146.934c0-3.304,2.679-5.983,5.981-5.983l0,0
		c3.306,0,5.982,2.679,5.982,5.983V631.55z"/>
	<path fill="#FFFFFF" stroke="#000000" stroke-width="0.5" stroke-miterlimit="10" d="M342.839,631.55
		c0,3.306-2.679,5.982-5.982,5.982l0,0c-3.305,0-5.981-2.681-5.981-5.982V146.934c0-3.304,2.679-5.983,5.981-5.983l0,0
		c3.306,0,5.982,2.679,5.982,5.983V631.55z"/>
	<path fill="#FFFFFF" stroke="#000000" stroke-width="0.5" stroke-miterlimit="10" d="M306.382,631.55
		c0,3.306-2.679,5.982-5.982,5.982l0,0c-3.304,0-5.981-2.681-5.981-5.982V146.934c0-3.304,2.679-5.983,5.981-5.983l0,0
		c3.306,0,5.982,2.679,5.982,5.983V631.55z"/>
	<path fill="#FFFFFF" stroke="#000000" stroke-width="0.5" stroke-miterlimit="10" d="M269.925,631.55
		c0,3.306-2.679,5.982-5.983,5.982l0,0c-3.304,0-5.981-2.681-5.981-5.982V146.934c0-3.304,2.679-5.983,5.981-5.983l0,0
		c3.306,0,5.983,2.679,5.983,5.983V631.55z"/>
	<path fill="#FFFFFF" stroke="#000000" stroke-width="0.5" stroke-miterlimit="10" d="M233.469,631.55
		c0,3.306-2.679,5.982-5.983,5.982l0,0c-3.304,0-5.981-2.681-5.981-5.982V146.934c0-3.304,2.679-5.983,5.981-5.983l0,0
		c3.306,0,5.983,2.679,5.983,5.983V631.55z"/>
	<path fill="#FFFFFF" stroke="#000000" stroke-width="0.5" stroke-miterlimit="10" d="M780.32,631.55
		c0,3.306-2.68,5.982-5.982,5.982l0,0c-3.305,0-5.981-2.681-5.981-5.982V146.934c0-3.304,2.679-5.983,5.981-5.983l0,0
		c3.305,0,5.982,2.679,5.982,5.983V631.55z"/>
	<path fill="#FFFFFF" stroke="#000000" stroke-width="0.5" stroke-miterlimit="10" d="M525.122,631.55
		c0,3.306-2.679,5.982-5.982,5.982l0,0c-3.304,0-5.981-2.681-5.981-5.982V146.934c0-3.304,2.68-5.983,5.981-5.983l0,0
		c3.306,0,5.982,2.679,5.982,5.983V631.55z"/>
	<path fill="#FFFFFF" stroke="#000000" stroke-width="0.5" stroke-miterlimit="10" d="M743.863,631.55
		c0,3.306-2.68,5.982-5.982,5.982l0,0c-3.305,0-5.981-2.681-5.981-5.982V146.934c0-3.304,2.679-5.983,5.981-5.983l0,0
		c3.305,0,5.982,2.679,5.982,5.983V631.55z"/>
	<path fill="#FFFFFF" stroke="#000000" stroke-width="0.5" stroke-miterlimit="10" d="M488.666,631.55
		c0,3.306-2.68,5.982-5.983,5.982l0,0c-3.304,0-5.981-2.681-5.981-5.982V146.934c0-3.304,2.68-5.983,5.981-5.983l0,0
		c3.306,0,5.983,2.679,5.983,5.983V631.55z"/>
	<path fill="#FFFFFF" stroke="#000000" stroke-width="0.5" stroke-miterlimit="10" d="M707.406,631.55
		c0,3.306-2.68,5.982-5.982,5.982l0,0c-3.305,0-5.981-2.681-5.981-5.982V146.934c0-3.304,2.679-5.983,5.981-5.983l0,0
		c3.306,0,5.982,2.679,5.982,5.983V631.55z"/>
	<path fill="#FFFFFF" stroke="#000000" stroke-width="0.5" stroke-miterlimit="10" d="M598.036,631.55
		c0,3.306-2.68,5.982-5.983,5.982l0,0c-3.303,0-5.981-2.681-5.981-5.982V146.934c0-3.304,2.681-5.983,5.981-5.983l0,0
		c3.306,0,5.983,2.679,5.983,5.983V631.55z"/>
	<path fill="#FFFFFF" stroke="#000000" stroke-width="0.5" stroke-miterlimit="10" d="M670.949,631.55
		c0,3.306-2.68,5.982-5.982,5.982l0,0c-3.305,0-5.981-2.681-5.981-5.982V146.934c0-3.304,2.679-5.983,5.981-5.983l0,0
		c3.306,0,5.982,2.679,5.982,5.983V631.55z"/>
	<path fill="#FFFFFF" stroke="#000000" stroke-width="0.5" stroke-miterlimit="10" d="M561.579,631.55
		c0,3.306-2.68,5.982-5.983,5.982l0,0c-3.303,0-5.981-2.681-5.981-5.982V146.934c0-3.304,2.681-5.983,5.981-5.983l0,0
		c3.306,0,5.983,2.679,5.983,5.983V631.55z"/>
	<circle fill="#FFFFFF" stroke="#000000" stroke-width="0.5" stroke-miterlimit="10" cx="172.801" cy="389.242" r="7.051"/>
	<circle fill="#FFFFFF" stroke="#000000" stroke-width="0.5" stroke-miterlimit="10" cx="245.714" cy="389.242" r="7.051"/>
	<circle fill="#FFFFFF" stroke="#000000" stroke-width="0.5" stroke-miterlimit="10" cx="209.257" cy="389.242" r="7.051"/>
	<circle fill="#FFFFFF" stroke="#000000" stroke-width="0.5" stroke-miterlimit="10" cx="282.171" cy="389.242" r="7.051"/>
	<circle fill="#FFFFFF" stroke="#000000" stroke-width="0.5" stroke-miterlimit="10" cx="318.628" cy="389.242" r="7.051"/>
	<circle fill="#FFFFFF" stroke="#000000" stroke-width="0.5" stroke-miterlimit="10" cx="355.084" cy="389.242" r="7.051"/>
	<circle fill="#FFFFFF" stroke="#000000" stroke-width="0.5" stroke-miterlimit="10" cx="391.541" cy="389.242" r="7.051"/>
	<circle fill="#FFFFFF" stroke="#000000" stroke-width="0.5" stroke-miterlimit="10" cx="427.997" cy="389.242" r="7.051"/>
	<circle fill="#FFFFFF" stroke="#000000" stroke-width="0.5" stroke-miterlimit="10" cx="464.454" cy="389.242" r="7.051"/>
	<circle fill="#FFFFFF" stroke="#000000" stroke-width="0.5" stroke-miterlimit="10" cx="537.368" cy="389.242" r="7.051"/>
	<circle fill="#FFFFFF" stroke="#000000" stroke-width="0.5" stroke-miterlimit="10" cx="500.911" cy="389.242" r="7.051"/>
	<circle fill="#FFFFFF" stroke="#000000" stroke-width="0.5" stroke-miterlimit="10" cx="573.824" cy="389.242" r="7.051"/>
	<circle fill="#FFFFFF" stroke="#000000" stroke-width="0.5" stroke-miterlimit="10" cx="610.281" cy="389.242" r="7.051"/>
	<circle fill="#FFFFFF" stroke="#000000" stroke-width="0.5" stroke-miterlimit="10" cx="646.739" cy="389.242" r="7.051"/>
	<circle fill="#FFFFFF" stroke="#000000" stroke-width="0.5" stroke-miterlimit="10" cx="683.195" cy="389.242" r="7.051"/>
	<circle fill="#FFFFFF" stroke="#000000" stroke-width="0.5" stroke-miterlimit="10" cx="719.652" cy="389.242" r="7.051"/>
	<circle fill="#FFFFFF" stroke="#000000" stroke-width="0.5" stroke-miterlimit="10" cx="756.109" cy="389.242" r="7.051"/>
	<circle fill="#FFFFFF" stroke="#000000" stroke-width="0.5" stroke-miterlimit="10" cx="829.022" cy="389.242" r="7.051"/>
	<circle fill="#FFFFFF" stroke="#000000" stroke-width="0.5" stroke-miterlimit="10" cx="792.566" cy="389.242" r="7.051"/>
	<circle fill="#FFFFFF" stroke="#000000" stroke-width="0.5" stroke-miterlimit="10" cx="865.479" cy="389.242" r="7.051"/>
	<circle fill="#FFFFFF" stroke="#000000" stroke-width="0.5" stroke-miterlimit="10" cx="901.937" cy="389.242" r="7.051"/>
	<circle fill="#FFFFFF" stroke="#000000" stroke-width="0.5" stroke-miterlimit="10" cx="938.394" cy="389.242" r="7.051"/>
	<circle fill="#FFFFFF" stroke="#000000" stroke-width="0.5" stroke-miterlimit="10" cx="974.85" cy="389.242" r="7.051"/>
	<circle fill="#FFFFFF" stroke="#000000" stroke-width="0.5" stroke-miterlimit="10" cx="1011.307" cy="389.242" r="7.051"/>
	<path fill="none" stroke="#000000" stroke-width="0.5" stroke-miterlimit="10" d="M1030.641,639.58c0,6.627-5.373,12-12,12H145.205
		c-6.627,0-12-5.373-12-12V137.938c0-6.627,5.373-12,12-12h873.436c6.627,0,12,5.373,12,12V639.58z"/>
</g>
<path fill="#FFFFFF" stroke="#000000" stroke-width="0.5" stroke-miterlimit="10" d="M1028.948,720.251h-29.616
	c-6.628,0-12,5.979-12,13.354v22.396h-750.1v-22.396c0-7.377-5.373-13.354-12-13.354h-29.616c-6.628,0-12,5.979-12,13.354v34.396
	v17.713v1.355c0,6.627,5.372,12,12,12h29.616H999.33h29.617c6.627,0,12-5.373,12-12v-1.355l0.001-17.713v-34.396
	C1040.948,726.23,1035.575,720.251,1028.948,720.251z"/>
<path fill="#FFFFFF" stroke="#000000" stroke-width="0.5" stroke-miterlimit="10" d="M133.948,739.332h29.617
	c6.627,0,12-5.979,12-13.355V703.58h750.098v22.396c0,7.378,5.373,13.355,12,13.355h29.617c6.627,0,12-5.98,12-13.355V691.58
	v-17.713v-1.355c0-6.627-5.373-12-12-12h-29.617H163.565h-29.617c-6.627,0-12,5.373-12,12v1.355v17.713v34.396
	C121.948,733.355,127.321,739.332,133.948,739.332z"/>
<g>
	<path fill="#FFFFFF" stroke="#000000" stroke-width="0.5" stroke-miterlimit="10" d="M898.418,19.444v76.264
		c0,6.628,5.373,12,12,12h68.615l-48.398-48.399c-3.051-3.051-3.002-8.047,0.109-11.159l0.771-0.771
		c3.11-3.11,8.108-3.159,11.159-0.108l4.004,4.004c2.253,3.717,1.259,6.14,1.259,6.14c-0.925,7.902,7.985,8.433,13.002,8.12
		l42.173,42.174h47.18v701.322H910.418c-6.627,0-12,5.371-12,12v76.264c0,6.627,5.373,12,12,12h151.871h76.264h0.002
		c6.627,0,12-5.373,12-12v-76.264c0-0.008-0.002-0.015-0.002-0.021V95.727c0-0.007,0.001-0.013,0.001-0.02V19.444
		c0-6.627-5.373-12-12-12h-0.001h-76.264H910.418C903.791,7.444,898.418,12.817,898.418,19.444z M927.034,859.162
		c0-7.316,5.931-13.246,13.246-13.246s13.245,5.93,13.245,13.246c0,7.315-5.93,13.248-13.245,13.248S927.034,866.48,927.034,859.162
		z"/>
	<path fill="#FFFFFF" stroke="#000000" stroke-width="0.5" stroke-miterlimit="10" d="M1100.118,832.498
		c-3.964,0-7.171,1.666-7.171,3.723v46.172c0,2.06,3.211,3.726,7.171,3.726l0,0c3.958,0,7.171-1.666,7.171-3.726V836.22
		C1107.288,834.164,1104.076,832.498,1100.118,832.498L1100.118,832.498z"/>
	<path fill="#FFFFFF" stroke="#000000" stroke-width="0.5" stroke-miterlimit="10" d="M1100.116,28.851
		c-3.962,0-7.17,1.667-7.17,3.723v46.173c0,2.056,3.208,3.722,7.17,3.722l0,0c3.96,0,7.171-1.666,7.171-3.722V32.574
		C1107.287,30.518,1104.076,28.851,1100.116,28.851L1100.116,28.851z"/>
</g>
<g>
	<path fill="#FFFFFF" stroke="#000000" stroke-width="0.5" stroke-miterlimit="10" d="M265.658,901.294V825.03
		c0-6.628-5.373-12-12-12h-68.616l48.398,48.398c3.052,3.052,3.002,8.047-0.108,11.159l-0.771,0.771
		c-3.109,3.109-8.107,3.158-11.159,0.107l-4.004-4.004c-2.253-3.718-1.259-6.141-1.259-6.141c0.925-7.901-7.985-8.434-13.002-8.12
		l-42.173-42.174h-47.179v-701.32h139.871c6.628,0,12-5.371,12-12V23.444c0-6.627-5.372-12-12-12H101.787H25.523h-0.002
		c-6.627,0-12,5.373-12,12v76.264c0,0.008,0.002,0.014,0.002,0.021v725.282c0,0.007-0.001,0.014-0.001,0.021v76.264
		c0,6.627,5.373,12,12,12h0.001h76.265h151.871C260.285,913.294,265.658,907.921,265.658,901.294z M237.041,61.577
		c0,7.316-5.931,13.246-13.246,13.246s-13.245-5.93-13.245-13.246c0-7.316,5.93-13.248,13.245-13.248S237.041,54.258,237.041,61.577
		z"/>
	<path fill="#FFFFFF" stroke="#000000" stroke-width="0.5" stroke-miterlimit="10" d="M63.957,88.241
		c3.964,0,7.171-1.666,7.171-3.723V38.346c0-2.059-3.211-3.725-7.171-3.725l0,0c-3.958,0-7.17,1.666-7.17,3.725v46.172
		C56.787,86.575,59.999,88.241,63.957,88.241L63.957,88.241z"/>
	<path fill="#FFFFFF" stroke="#000000" stroke-width="0.5" stroke-miterlimit="10" d="M63.959,891.887
		c3.962,0,7.17-1.667,7.17-3.724V841.99c0-2.057-3.208-3.723-7.17-3.723l0,0c-3.96,0-7.171,1.666-7.171,3.723v46.173
		C56.788,890.22,59.999,891.887,63.959,891.887L63.959,891.887z"/>
</g>
</svg>
